<?xml version="1.0" encoding="utf-8"?>
<!-- Generator: Adobe Illustrator 16.0.0, SVG Export Plug-In . SVG Version: 6.00 Build 0)  -->
<!DOCTYPE svg PUBLIC "-//W3C//DTD SVG 1.1//EN" "http://www.w3.org/Graphics/SVG/1.1/DTD/svg11.dtd">
<svg version="1.1" id="Layer_1" xmlns="http://www.w3.org/2000/svg" xmlns:xlink="http://www.w3.org/1999/xlink" x="0px" y="0px"
	 width="500px" height="250px" viewBox="0 0 500 250" enable-background="new 0 0 500 250" xml:space="preserve">
<g>
	<path fill="#FFFFFF" d="M194.133,151.113l-6.174,1.659c-3.112,0.807-6.151,1.43-9.111,1.883c-2.963,0.451-5.75,0.679-8.36,0.679
		c-4.218,0-7.81-0.603-10.767-1.808c-2.966-1.205-5.198-3.111-6.701-5.724c-1.509-2.612-2.261-6.025-2.261-10.24h54.068l1.357-6.175
		c1.302-6.827,1.053-13.154-0.751-18.978c-1.811-5.823-5.101-10.518-9.866-14.083c-4.771-3.563-10.922-5.347-18.451-5.347
		c-7.131,0-13.782,1.38-19.957,4.142c-6.171,2.764-11.419,6.879-15.739,12.352c-4.317,5.473-7.33,12.326-9.035,20.557
		c-1.606,8.433-1.129,15.792,1.43,22.066c2.56,6.273,6.628,11.144,12.2,14.607c5.575,3.463,12.074,5.197,19.504,5.197
		c4.013,0,8.23-0.477,12.65-1.431c4.419-0.956,8.936-2.384,13.557-4.294l5.572-2.41L194.133,151.113z M161.45,112.785
		c3.516-2.457,7.731-3.691,12.653-3.691c4.82,0,8.559,1.334,11.22,3.993c2.659,2.662,4.04,6.201,4.142,10.618h-36.147
		C155.226,118.886,157.937,115.248,161.45,112.785z"/>
	<path fill="#FFFFFF" d="M377.327,152.772c-3.115,0.807-6.151,1.43-9.111,1.883c-2.963,0.451-5.75,0.679-8.356,0.679
		c-4.218,0-7.815-0.603-10.77-1.808c-2.966-1.205-5.198-3.111-6.704-5.724c-1.507-2.612-2.255-6.025-2.255-10.24h54.062l1.357-6.175
		c1.305-6.827,1.056-13.154-0.749-18.978c-1.811-5.823-5.101-10.518-9.865-14.083c-4.771-3.563-10.92-5.347-18.451-5.347
		c-7.131,0-13.782,1.38-19.957,4.142c-6.175,2.764-11.425,6.879-15.739,12.352c-4.317,5.473-7.33,12.326-9.038,20.557
		c-1.604,8.433-1.126,15.792,1.433,22.066c2.56,6.273,6.626,11.144,12.2,14.607c5.575,3.463,12.071,5.197,19.504,5.197
		c4.014,0,8.23-0.477,12.65-1.431c4.42-0.956,8.936-2.384,13.558-4.294l5.572-2.41l-3.165-12.653L377.327,152.772z M350.821,112.785
		c3.513-2.457,7.728-3.691,12.65-3.691c4.817,0,8.556,1.334,11.217,3.993c2.659,2.662,4.043,6.201,4.143,10.618h-36.145
		C344.594,118.886,347.306,115.248,350.821,112.785z"/>
	<polygon fill="#FFFFFF" points="485.756,94.185 462.713,94.185 442.379,117.529 431.082,94.185 410.754,94.185 429.43,130.183 
		393.733,170.696 416.776,170.696 438.012,146.296 450.363,170.696 470.996,170.696 451.571,132.742 	"/>
	<path fill="#FFFFFF" d="M281.921,10.203c-8.79-0.401-17.513,2.17-23.529,6.511c-6.014,4.341-9.947,11.095-11.808,20.271
		l-1.132,5.926l-4.089,20.46l-9.015,46.586l-11.893,3.548l-2.165,16.368h10.206l-1.454,7.521h0.003l-6.868,35.506l-4.092,20.458
		l-2.604,13.39c-0.866,4.464-2.571,7.655-5.116,9.58c-2.539,1.921-4.309,2.969-10.258,2.881c-6.827-0.097-12.911-6.421-12.911-6.421
		l-4.718,17.796c0,0,1.003,5.73,11.302,8.62c3.902,1.094,7.625,1.208,10.975,1.208c9.67,0,15.034-2.171,21.048-6.511
		c6.017-4.344,9.951-11.098,11.811-20.273l3.902-20.27l4.095-20.458l14.32-74.025h-0.003l6.865-35.503l3.922-19.503l0,0
		c0.866-4.463,1.775-6.335,4.432-9.07c1.942-1.998,4.417-2.852,7.131-3.063c3.504-0.272,6.251,2.524,7.091,4.706
		c1.146,2.978,1.729,6.848,0.865,11.314l0,0l-3.653,19.553l-14.826,78.039c-0.872,4.835-0.72,9.272,0.465,13.297
		c1.176,4.03,3.595,7.257,7.251,9.673c3.656,2.419,8.652,3.627,14.973,3.627c2.106,0,4.338-0.188,6.695-0.559
		c2.354-0.372,4.651-0.931,6.88-1.673l4.65-18.226c-1.611,0.248-3.227,0.4-4.835,0.465c-1.614,0.062-3.346,0.091-5.206,0.091
		c-2.978,0-5.087-0.679-6.327-2.045c-1.24-1.363-1.488-3.656-0.74-6.882l12.762-67.059l3.844-20.504l1.17-5.92
		c1.699-9.202,0.573-16.941-3.384-23.216C303.992,20.145,296.855,10.885,281.921,10.203z"/>
	<path fill="#FFFFFF" d="M122.235,45.522c-6.263-3.533-14.54-5.303-24.827-5.303H39.935L14.643,170.412h24.362l9.673-48.358
		l4.092-21.388l7.625-39.057h33.108c6.941,0,12.118,1.673,15.528,5.022c3.408,3.349,4.435,8.368,3.068,15.066
		c-1.366,6.572-4.247,11.378-8.649,14.411c-4.402,3.039-10.261,4.557-17.576,4.557H57.593l-4.153,21.388h20.717
		c0.339,0,0.661-0.012,0.998-0.015l21.694,48.373h27.898l-23.525-51.172c1.805-0.439,3.557-0.916,5.207-1.462
		c8.614-2.852,15.371-7.19,20.27-13.019c4.896-5.827,8.155-13.207,9.767-22.13c1.611-8.433,1.208-15.839-1.208-22.227
		C132.838,54.016,128.494,49.056,122.235,45.522z"/>
</g>
</svg>
