<?xml version="1.0" encoding="utf-8"?>
<!-- Generator: Adobe Illustrator 16.0.0, SVG Export Plug-In . SVG Version: 6.00 Build 0)  -->
<!DOCTYPE svg PUBLIC "-//W3C//DTD SVG 1.1//EN" "http://www.w3.org/Graphics/SVG/1.1/DTD/svg11.dtd">
<svg version="1.1" id="Layer_1" xmlns="http://www.w3.org/2000/svg" xmlns:xlink="http://www.w3.org/1999/xlink" x="0px" y="0px"
	 width="700px" height="185.456px" viewBox="0 0 700 185.456" enable-background="new 0 0 700 185.456" xml:space="preserve">
<g>
	<path fill="#FFFFFF" d="M25.82,42.307c-3.797,0-6.738-1.105-8.824-3.316s-3.129-5.332-3.129-9.363V7.877h4.781v21.914
		c0,2.484,0.625,4.406,1.875,5.766s3.016,2.039,5.297,2.039c2.297,0,4.074-0.68,5.332-2.039s1.887-3.281,1.887-5.766V7.877h4.781
		v21.75c0,4.031-1.047,7.152-3.141,9.363S29.633,42.307,25.82,42.307z"/>
	<path fill="#FFFFFF" d="M45.32,41.956V17.627h4.781v24.328H45.32z M60.086,41.956V27.213c0-1.719-0.441-3.047-1.324-3.984
		S56.625,21.823,55,21.823c-1.563,0-2.77,0.414-3.621,1.242s-1.277,1.992-1.277,3.492l-0.492-4.688
		c0.75-1.469,1.73-2.602,2.941-3.398s2.551-1.195,4.02-1.195c2.641,0,4.684,0.863,6.129,2.59s2.168,4.168,2.168,7.324v14.766H60.086
		z"/>
	<path fill="#FFFFFF" d="M76.914,7.877v27.797c0,0.578,0.129,1.031,0.387,1.359s0.621,0.492,1.09,0.492h2.25v4.547h-2.813
		c-1.797,0-3.195-0.563-4.195-1.688s-1.5-2.711-1.5-4.758V7.877H76.914z"/>
	<path fill="#FFFFFF" d="M95.992,42.307c-3.391,0-6.016-0.945-7.875-2.836s-2.789-4.578-2.789-8.063v-2.742
		c0-3.625,0.895-6.43,2.684-8.414s4.309-2.977,7.559-2.977c3.063,0,5.434,1.125,7.113,3.375s2.52,5.406,2.52,9.469v1.594H88.797
		V27.87h11.859c-0.141-1.969-0.652-3.508-1.535-4.617s-2.066-1.664-3.551-1.664c-1.797,0-3.195,0.594-4.195,1.781
		s-1.5,2.867-1.5,5.039v3.094c0,2.016,0.535,3.563,1.605,4.641s2.574,1.617,4.512,1.617c0.969,0,1.93-0.195,2.883-0.586
		s1.805-0.938,2.555-1.641l3.141,3.141c-1.203,1.156-2.555,2.051-4.055,2.684S97.508,42.307,95.992,42.307z"/>
	<path fill="#FFFFFF" d="M119.547,42.307c-2.984,0-5.223-0.617-6.715-1.852s-2.238-3.125-2.238-5.672
		c0-2.422,0.684-4.23,2.051-5.426s3.418-1.793,6.152-1.793h6.914l0.328,3.844h-7.219c-1.234,0-2.164,0.277-2.789,0.832
		s-0.938,1.402-0.938,2.543c0,1.234,0.414,2.148,1.242,2.742s2.07,0.891,3.727,0.891c1.813,0,3.172-0.195,4.078-0.586
		s1.359-1,1.359-1.828l0.492,3.422c-0.422,0.656-0.945,1.195-1.57,1.617s-1.34,0.738-2.145,0.949S120.563,42.307,119.547,42.307z
		 M125.5,41.956V26.534c0-1.594-0.426-2.832-1.277-3.715s-2.059-1.324-3.621-1.324c-0.953,0-1.895,0.145-2.824,0.434
		s-1.762,0.707-2.496,1.254l-3.492-2.391c0.922-1.109,2.137-1.973,3.645-2.59s3.184-0.926,5.027-0.926
		c3.047,0,5.406,0.789,7.078,2.367s2.508,3.805,2.508,6.68v15.633H125.5z"/>
	<path fill="#FFFFFF" d="M145.914,42.307c-2.156,0-4.113-0.316-5.871-0.949s-3.332-1.582-4.723-2.848l2.836-3.492
		c1.328,1,2.637,1.75,3.926,2.25s2.566,0.75,3.832,0.75c1.891,0,3.309-0.293,4.254-0.879s1.418-1.465,1.418-2.637
		c0-0.906-0.316-1.547-0.949-1.922s-1.461-0.621-2.484-0.738s-2.121-0.215-3.293-0.293c-0.984-0.078-1.961-0.199-2.93-0.363
		s-1.852-0.461-2.648-0.891s-1.434-1.066-1.91-1.91s-0.715-1.977-0.715-3.398c0-2.578,0.789-4.508,2.367-5.789
		s3.93-1.922,7.055-1.922c1.906,0,3.68,0.258,5.32,0.773s3.18,1.305,4.617,2.367l-2.883,3.492c-1.219-0.781-2.418-1.367-3.598-1.758
		s-2.332-0.586-3.457-0.586c-1.625,0-2.844,0.277-3.656,0.832s-1.219,1.387-1.219,2.496c0,0.734,0.281,1.262,0.844,1.582
		s1.305,0.527,2.227,0.621s1.914,0.18,2.977,0.258c1.016,0.063,2.043,0.176,3.082,0.34s1.996,0.48,2.871,0.949
		s1.578,1.164,2.109,2.086s0.797,2.18,0.797,3.773c0,2.609-0.848,4.563-2.543,5.859S149.32,42.307,145.914,42.307z"/>
	<path fill="#FFFFFF" d="M162.203,41.956V7.877h4.781v34.078H162.203z M176.969,41.956V27.213c0-1.719-0.441-3.047-1.324-3.984
		s-2.137-1.406-3.762-1.406c-1.563,0-2.77,0.406-3.621,1.219s-1.277,1.961-1.277,3.445l-0.492-4.688
		c0.75-1.438,1.73-2.551,2.941-3.34s2.551-1.184,4.02-1.184c2.641,0,4.684,0.863,6.129,2.59s2.168,4.168,2.168,7.324v14.766H176.969
		z"/>
	<path fill="#FFFFFF" d="M209.031,43.948l-9.703-26.32h4.875l7.477,21.141L209.031,43.948z M215.992,17.627h4.875l-10.359,30.023
		c-0.578,1.672-1.414,2.832-2.508,3.48s-2.594,0.973-4.5,0.973h-0.961V47.51h0.961c0.891,0,1.598-0.18,2.121-0.539
		s0.98-0.977,1.371-1.852L215.992,17.627z"/>
	<path fill="#FFFFFF" d="M233.945,42.307c-3.188,0-5.656-0.926-7.406-2.777s-2.625-4.457-2.625-7.816v-3.961
		c0-3.328,0.875-5.906,2.625-7.734s4.219-2.742,7.406-2.742s5.656,0.914,7.406,2.742s2.625,4.406,2.625,7.734v4.031
		c0,3.344-0.875,5.934-2.625,7.77S237.133,42.307,233.945,42.307z M233.945,37.76c1.672,0,2.965-0.523,3.879-1.57
		s1.371-2.516,1.371-4.406v-4.031c0-1.891-0.457-3.352-1.371-4.383s-2.207-1.547-3.879-1.547c-1.656,0-2.945,0.516-3.867,1.547
		s-1.383,2.492-1.383,4.383v4.031c0,1.891,0.461,3.359,1.383,4.406S232.289,37.76,233.945,37.76z"/>
	<path fill="#FFFFFF" d="M254.969,17.627v14.789c0,1.703,0.434,3.02,1.301,3.949s2.09,1.395,3.668,1.395s2.793-0.418,3.645-1.254
		s1.277-2.012,1.277-3.527l0.328,5.086c-0.438,1.094-1.203,2.074-2.297,2.941s-2.523,1.301-4.289,1.301
		c-2.688,0-4.762-0.863-6.223-2.59s-2.191-4.16-2.191-7.301V17.627H254.969z M264.859,41.956V17.627h4.758v24.328H264.859z"/>
	<path fill="#FFFFFF" d="M276.883,41.956V17.627h4.781v24.328H276.883z M290.266,23.393c-0.422-0.516-0.953-0.906-1.594-1.172
		s-1.383-0.398-2.227-0.398c-1.516,0-2.691,0.418-3.527,1.254s-1.254,1.996-1.254,3.48l-0.492-4.688
		c0.734-1.438,1.699-2.563,2.895-3.375s2.512-1.219,3.949-1.219c1.109,0,2.113,0.16,3.012,0.48s1.684,0.793,2.355,1.418
		L290.266,23.393z"/>
	<path fill="#FFFFFF" d="M310.258,12.659V7.877h4.781v4.781H310.258z M310.258,41.956V17.627h4.781v24.328H310.258z"/>
	<path fill="#FFFFFF" d="M322.305,41.956V17.627h4.781v24.328H322.305z M337.07,41.956V27.213c0-1.719-0.441-3.047-1.324-3.984
		s-2.137-1.406-3.762-1.406c-1.563,0-2.77,0.414-3.621,1.242s-1.277,1.992-1.277,3.492l-0.492-4.688
		c0.75-1.469,1.73-2.602,2.941-3.398s2.551-1.195,4.02-1.195c2.641,0,4.684,0.863,6.129,2.59s2.168,4.168,2.168,7.324v14.766H337.07
		z"/>
	<path fill="#FFFFFF" d="M349.117,41.956V17.627h4.781v24.328H349.117z M363.883,41.956V27.213c0-1.719-0.441-3.047-1.324-3.984
		s-2.137-1.406-3.762-1.406c-1.563,0-2.77,0.414-3.621,1.242s-1.277,1.992-1.277,3.492l-0.492-4.688
		c0.75-1.469,1.73-2.602,2.941-3.398s2.551-1.195,4.02-1.195c2.641,0,4.684,0.863,6.129,2.59s2.168,4.168,2.168,7.324v14.766
		H363.883z"/>
	<path fill="#FFFFFF" d="M385.891,42.307c-3.391,0-6.016-0.945-7.875-2.836s-2.789-4.578-2.789-8.063v-2.742
		c0-3.625,0.895-6.43,2.684-8.414s4.309-2.977,7.559-2.977c3.063,0,5.434,1.125,7.113,3.375s2.52,5.406,2.52,9.469v1.594h-16.406
		V27.87h11.859c-0.141-1.969-0.652-3.508-1.535-4.617s-2.066-1.664-3.551-1.664c-1.797,0-3.195,0.594-4.195,1.781
		s-1.5,2.867-1.5,5.039v3.094c0,2.016,0.535,3.563,1.605,4.641s2.574,1.617,4.512,1.617c0.969,0,1.93-0.195,2.883-0.586
		s1.805-0.938,2.555-1.641l3.141,3.141c-1.203,1.156-2.555,2.051-4.055,2.684S387.406,42.307,385.891,42.307z"/>
	<path fill="#FFFFFF" d="M401.664,41.956V17.627h4.781v24.328H401.664z M415.047,23.393c-0.422-0.516-0.953-0.906-1.594-1.172
		s-1.383-0.398-2.227-0.398c-1.516,0-2.691,0.418-3.527,1.254s-1.254,1.996-1.254,3.48l-0.492-4.688
		c0.734-1.438,1.699-2.563,2.895-3.375s2.512-1.219,3.949-1.219c1.109,0,2.113,0.16,3.012,0.48s1.684,0.793,2.355,1.418
		L415.047,23.393z"/>
	<path fill="#FFFFFF" d="M435.039,41.956V17.627h4.781v24.328H435.039z M449.57,41.956V27.213c0-1.719-0.422-3.047-1.266-3.984
		s-2.039-1.406-3.586-1.406c-1.563,0-2.77,0.414-3.621,1.242s-1.277,1.992-1.277,3.492l-0.492-4.688
		c0.75-1.469,1.73-2.602,2.941-3.398s2.551-1.195,4.02-1.195c2.563,0,4.547,0.863,5.953,2.59s2.109,4.168,2.109,7.324v14.766H449.57
		z M464.102,41.956V27.213c0-1.719-0.441-3.047-1.324-3.984s-2.137-1.406-3.762-1.406c-1.484,0-2.633,0.453-3.445,1.359
		s-1.219,2.188-1.219,3.844l-0.961-4.688c0.781-1.625,1.797-2.875,3.047-3.75s2.633-1.313,4.148-1.313
		c2.641,0,4.684,0.863,6.129,2.59s2.168,4.168,2.168,7.324v14.766H464.102z"/>
	<path fill="#FFFFFF" d="M485.477,42.307c-3.188,0-5.656-0.926-7.406-2.777s-2.625-4.457-2.625-7.816v-3.961
		c0-3.328,0.875-5.906,2.625-7.734s4.219-2.742,7.406-2.742s5.656,0.914,7.406,2.742s2.625,4.406,2.625,7.734v4.031
		c0,3.344-0.875,5.934-2.625,7.77S488.664,42.307,485.477,42.307z M485.477,37.76c1.672,0,2.965-0.523,3.879-1.57
		s1.371-2.516,1.371-4.406v-4.031c0-1.891-0.457-3.352-1.371-4.383s-2.207-1.547-3.879-1.547c-1.656,0-2.945,0.516-3.867,1.547
		s-1.383,2.492-1.383,4.383v4.031c0,1.891,0.461,3.359,1.383,4.406S483.82,37.76,485.477,37.76z"/>
	<path fill="#FFFFFF" d="M502.305,41.956V17.627h4.781v24.328H502.305z M517.07,41.956V27.213c0-1.719-0.441-3.047-1.324-3.984
		s-2.137-1.406-3.762-1.406c-1.563,0-2.77,0.414-3.621,1.242s-1.277,1.992-1.277,3.492l-0.492-4.688
		c0.75-1.469,1.73-2.602,2.941-3.398s2.551-1.195,4.02-1.195c2.641,0,4.684,0.863,6.129,2.59s2.168,4.168,2.168,7.324v14.766H517.07
		z"/>
	<path fill="#FFFFFF" d="M538.445,42.307c-3.188,0-5.656-0.926-7.406-2.777s-2.625-4.457-2.625-7.816v-3.961
		c0-3.328,0.875-5.906,2.625-7.734s4.219-2.742,7.406-2.742s5.656,0.914,7.406,2.742s2.625,4.406,2.625,7.734v4.031
		c0,3.344-0.875,5.934-2.625,7.77S541.633,42.307,538.445,42.307z M538.445,37.76c1.672,0,2.965-0.523,3.879-1.57
		s1.371-2.516,1.371-4.406v-4.031c0-1.891-0.457-3.352-1.371-4.383s-2.207-1.547-3.879-1.547c-1.656,0-2.945,0.516-3.867,1.547
		s-1.383,2.492-1.383,4.383v4.031c0,1.891,0.461,3.359,1.383,4.406S536.789,37.76,538.445,37.76z"/>
	<path fill="#FFFFFF" d="M560.055,7.877v27.797c0,0.578,0.129,1.031,0.387,1.359s0.621,0.492,1.09,0.492h2.25v4.547h-2.813
		c-1.797,0-3.195-0.563-4.195-1.688s-1.5-2.711-1.5-4.758V7.877H560.055z"/>
	<path fill="#FFFFFF" d="M578.5,42.307c-3.188,0-5.656-0.926-7.406-2.777s-2.625-4.457-2.625-7.816v-3.961
		c0-3.328,0.875-5.906,2.625-7.734s4.219-2.742,7.406-2.742s5.656,0.914,7.406,2.742s2.625,4.406,2.625,7.734v4.031
		c0,3.344-0.875,5.934-2.625,7.77S581.688,42.307,578.5,42.307z M578.5,37.76c1.672,0,2.965-0.523,3.879-1.57
		s1.371-2.516,1.371-4.406v-4.031c0-1.891-0.457-3.352-1.371-4.383s-2.207-1.547-3.879-1.547c-1.656,0-2.945,0.516-3.867,1.547
		s-1.383,2.492-1.383,4.383v4.031c0,1.891,0.461,3.359,1.383,4.406S576.844,37.76,578.5,37.76z"/>
	<path fill="#FFFFFF" d="M603.039,42.377c-2.688,0-4.762-0.863-6.223-2.59s-2.191-4.16-2.191-7.301V27.12
		c0-3.156,0.715-5.598,2.145-7.324s3.441-2.59,6.035-2.59c1.438,0,2.754,0.375,3.949,1.125s2.16,1.805,2.895,3.164l-0.492,4.969
		c0-1.031-0.188-1.914-0.563-2.648s-0.918-1.293-1.629-1.676s-1.574-0.574-2.59-0.574c-1.578,0-2.801,0.492-3.668,1.477
		s-1.301,2.367-1.301,4.148v5.297c0,1.766,0.434,3.129,1.301,4.09s2.09,1.441,3.668,1.441c1.016,0,1.879-0.199,2.59-0.598
		s1.254-0.973,1.629-1.723s0.563-1.648,0.563-2.695l0.328,5.133c-0.438,1.094-1.191,2.074-2.262,2.941
		S604.758,42.377,603.039,42.377z M603.484,51.846c-1.828,0-3.465-0.34-4.91-1.02s-2.566-1.637-3.363-2.871l3.234-2.93
		c0.625,0.859,1.371,1.523,2.238,1.992s1.777,0.703,2.73,0.703c1.828,0,3.242-0.504,4.242-1.512s1.5-2.434,1.5-4.277V17.627h4.781
		v23.602c0,3.375-0.91,5.988-2.73,7.84S606.813,51.846,603.484,51.846z"/>
	<path fill="#FFFFFF" d="M625.984,17.627v14.789c0,1.703,0.434,3.02,1.301,3.949s2.09,1.395,3.668,1.395s2.793-0.418,3.645-1.254
		s1.277-2.012,1.277-3.527l0.328,5.086c-0.438,1.094-1.203,2.074-2.297,2.941s-2.523,1.301-4.289,1.301
		c-2.688,0-4.762-0.863-6.223-2.59s-2.191-4.16-2.191-7.301V17.627H625.984z M635.875,41.956V17.627h4.758v24.328H635.875z"/>
	<path fill="#FFFFFF" d="M657.859,42.307c-3.391,0-6.016-0.945-7.875-2.836s-2.789-4.578-2.789-8.063v-2.742
		c0-3.625,0.895-6.43,2.684-8.414s4.309-2.977,7.559-2.977c3.063,0,5.434,1.125,7.113,3.375s2.52,5.406,2.52,9.469v1.594h-16.406
		V27.87h11.859c-0.141-1.969-0.652-3.508-1.535-4.617s-2.066-1.664-3.551-1.664c-1.797,0-3.195,0.594-4.195,1.781
		s-1.5,2.867-1.5,5.039v3.094c0,2.016,0.535,3.563,1.605,4.641s2.574,1.617,4.512,1.617c0.969,0,1.93-0.195,2.883-0.586
		s1.805-0.938,2.555-1.641l3.141,3.141c-1.203,1.156-2.555,2.051-4.055,2.684S659.375,42.307,657.859,42.307z"/>
</g>
<g>
	<g>
		<g>
			<path fill="#FFFFFF" d="M503.163,141.041l-2.813,0.755c-1.419,0.369-2.807,0.652-4.155,0.86
				c-1.353,0.206-2.622,0.309-3.813,0.309c-1.923,0-3.56-0.274-4.909-0.823c-1.353-0.55-2.37-1.419-3.055-2.611
				c-0.688-1.189-1.03-2.747-1.03-4.668h24.652l0.618-2.815c0.595-3.114,0.48-5.998-0.343-8.653
				c-0.825-2.655-2.324-4.797-4.498-6.423c-2.175-1.623-4.98-2.437-8.413-2.437c-3.251,0-6.283,0.629-9.099,1.889
				c-2.813,1.261-5.206,3.136-7.178,5.631c-1.968,2.496-3.343,5.621-4.12,9.374c-0.731,3.845-0.513,7.2,0.652,10.062
				c1.167,2.859,3.022,5.081,5.563,6.66c2.542,1.58,5.506,2.37,8.895,2.37c1.829,0,3.753-0.219,5.769-0.652
				c2.014-0.436,4.074-1.086,6.182-1.959l2.54-1.099L503.163,141.041z M488.262,123.564c1.604-1.121,3.525-1.684,5.77-1.684
				c2.198,0,3.901,0.608,5.116,1.821c1.211,1.213,1.842,2.826,1.889,4.841h-16.481C485.422,126.346,486.66,124.687,488.262,123.564z
				"/>
			<path fill="#FFFFFF" d="M586.695,141.795c-1.421,0.369-2.805,0.652-4.155,0.86c-1.351,0.206-2.621,0.309-3.81,0.309
				c-1.924,0-3.564-0.274-4.91-0.823c-1.353-0.55-2.371-1.419-3.059-2.611c-0.686-1.189-1.027-2.747-1.027-4.668h24.651l0.619-2.815
				c0.594-3.114,0.479-5.998-0.342-8.653c-0.825-2.655-2.326-4.797-4.499-6.423c-2.176-1.623-4.979-2.437-8.413-2.437
				c-3.252,0-6.284,0.629-9.1,1.889c-2.815,1.261-5.21,3.136-7.177,5.631c-1.968,2.496-3.344,5.621-4.121,9.374
				c-0.731,3.845-0.514,7.2,0.654,10.062c1.166,2.859,3.02,5.081,5.563,6.66c2.541,1.58,5.504,2.37,8.893,2.37
				c1.83,0,3.753-0.219,5.769-0.652c2.016-0.436,4.074-1.086,6.182-1.959l2.541-1.099l-1.444-5.769L586.695,141.795z
				 M574.61,123.564c1.601-1.121,3.522-1.684,5.767-1.684c2.196,0,3.901,0.608,5.114,1.821s1.845,2.826,1.89,4.841H570.9
				C571.77,126.346,573.006,124.687,574.61,123.564z"/>
			<polygon fill="#FFFFFF" points="636.135,115.083 625.627,115.083 616.356,125.727 611.205,115.083 601.938,115.083 
				610.451,131.496 594.175,149.969 604.683,149.969 614.365,138.842 619.996,149.969 629.405,149.969 620.548,132.664 			"/>
			<path fill="#FFFFFF" d="M543.192,76.789c-4.007-0.182-7.985,0.991-10.728,2.97s-4.536,5.059-5.385,9.242l-0.517,2.703
				l-1.864,9.33l-4.11,21.239l-5.423,1.619l-0.986,7.463h4.653l-0.663,3.43h0.001l-3.132,16.188l-1.865,9.328l-1.188,6.106
				c-0.395,2.034-1.172,3.489-2.333,4.368c-1.157,0.874-1.965,1.353-4.677,1.313c-3.112-0.044-5.888-2.928-5.888-2.928l-2.15,8.115
				c0,0,0.458,2.613,5.154,3.931c1.778,0.499,3.478,0.551,5.004,0.551c4.408,0,6.854-0.991,9.597-2.969
				c2.743-1.981,4.537-5.061,5.386-9.244l1.778-9.243l1.868-9.328l6.528-33.753h-0.001l3.13-16.187l1.79-8.895l0,0
				c0.394-2.035,0.808-2.889,2.021-4.137c0.887-0.91,2.014-1.3,3.25-1.395c1.598-0.125,2.853,1.149,3.233,2.146
				c0.522,1.356,0.789,3.121,0.395,5.159l0,0l-1.666,8.914l-6.76,35.584c-0.397,2.204-0.327,4.228,0.213,6.063
				c0.535,1.837,1.639,3.31,3.306,4.41c1.666,1.104,3.944,1.654,6.826,1.654c0.962,0,1.979-0.085,3.054-0.255
				c1.073-0.169,2.121-0.424,3.137-0.763l2.12-8.311c-0.735,0.114-1.472,0.183-2.204,0.213c-0.736,0.028-1.525,0.041-2.374,0.041
				c-1.356,0-2.319-0.311-2.885-0.933s-0.68-1.668-0.338-3.139l5.819-30.576l1.753-9.349l0.532-2.7
				c0.776-4.196,0.263-7.724-1.542-10.585C553.257,81.323,550.003,77.1,543.192,76.789z"/>
			<path fill="#FFFFFF" d="M470.381,92.894c-2.854-1.61-6.63-2.418-11.32-2.418h-26.206l-11.533,59.363h11.109l4.409-22.049
				l1.867-9.753l3.478-17.809h15.095c3.166,0,5.526,0.763,7.081,2.289c1.554,1.528,2.022,3.816,1.398,6.871
				c-0.622,2.997-1.937,5.188-3.942,6.571c-2.008,1.386-4.68,2.077-8.014,2.077h-12.896l-1.895,9.753h9.446
				c0.155,0,0.303-0.005,0.456-0.008l9.892,22.057h12.72L460.8,126.507c0.821-0.201,1.621-0.418,2.373-0.668
				c3.927-1.3,7.009-3.277,9.243-5.937c2.232-2.655,3.719-6.021,4.454-10.09c0.733-3.845,0.551-7.222-0.553-10.135
				C475.215,96.767,473.234,94.504,470.381,92.894z"/>
		</g>
	</g>
	<g>
		<g>
			<path fill="#FFFFFF" d="M37.477,138.952c-0.89-0.217-1.822-0.597-2.798-1.142c-0.23-0.144-0.316-0.416-0.258-0.818l0.603-5.684
				c0-0.142,0.079-0.215,0.237-0.215c0.157,0,0.237,0.073,0.237,0.215c0.057,2.068,0.566,3.798,1.529,5.189
				c0.961,1.391,2.403,2.087,4.326,2.087c1.406,0,2.647-0.408,3.723-1.228c1.077-0.818,1.758-2.088,2.045-3.81
				c0.086-0.487,0.13-0.918,0.13-1.29c0-1.408-0.409-2.576-1.227-3.509s-2.002-1.931-3.552-2.993
				c-1.063-0.774-1.901-1.427-2.519-1.959c-0.617-0.53-1.14-1.17-1.571-1.916c-0.43-0.745-0.646-1.606-0.646-2.582
				c0-0.402,0.043-0.817,0.129-1.248c0.287-1.437,0.868-2.655,1.744-3.661c0.875-1.004,1.93-1.758,3.165-2.26
				c1.233-0.502,2.511-0.753,3.831-0.753c1.521,0,3.071,0.345,4.65,1.032c0.373,0.202,0.544,0.444,0.516,0.733l-0.56,4.778
				c0,0.114-0.08,0.171-0.237,0.171c-0.158,0-0.251-0.057-0.279-0.171c-0.116-1.694-0.531-3.099-1.25-4.218
				c-0.717-1.12-1.893-1.681-3.529-1.681c-1.234,0-2.261,0.309-3.079,0.925c-0.818,0.619-1.421,1.388-1.808,2.304
				c-0.387,0.919-0.581,1.837-0.581,2.756c0,0.89,0.208,1.68,0.624,2.368c0.416,0.689,0.926,1.284,1.529,1.786
				c0.602,0.502,1.449,1.126,2.54,1.874c1.09,0.745,1.973,1.397,2.647,1.958c0.675,0.56,1.241,1.241,1.701,2.045
				c0.459,0.804,0.689,1.708,0.689,2.712c0,0.517-0.028,0.919-0.086,1.205c-0.373,2.123-1.42,3.875-3.142,5.252
				c-1.722,1.378-3.947,2.066-6.673,2.066C39.299,139.273,38.367,139.166,37.477,138.952z"/>
			<path fill="#FFFFFF" d="M54.848,137.53c-0.933-1.162-1.399-2.663-1.399-4.498c0-0.632,0.071-1.378,0.216-2.239
				c0.257-1.463,0.861-2.907,1.808-4.328c0.948-1.42,2.131-2.587,3.551-3.509c1.421-0.916,2.907-1.376,4.457-1.376
				c1.032,0,1.814,0.209,2.347,0.624c0.53,0.418,0.724,0.983,0.58,1.701c-0.172,0.89-0.796,1.743-1.873,2.56
				c-1.076,0.819-2.439,1.508-4.09,2.068s-3.394,0.94-5.231,1.141l0.087-0.56c2.295-0.316,4.176-0.833,5.64-1.55
				c1.464-0.716,2.324-1.638,2.583-2.756c0.057-0.286,0.086-0.487,0.086-0.603c0-0.488-0.201-0.854-0.603-1.098
				c-0.402-0.244-0.875-0.366-1.421-0.366c-1.377,0-2.525,0.616-3.443,1.85c-0.919,1.235-1.536,2.828-1.852,4.779
				c-0.172,0.892-0.258,1.738-0.258,2.541c0,1.78,0.394,3.207,1.184,4.283c0.789,1.077,1.916,1.615,3.38,1.615
				c1.635,0,3.084-0.474,4.348-1.422h0.085c0.086,0,0.166,0.044,0.237,0.13c0.071,0.087,0.064,0.171-0.022,0.258
				c-2.009,1.664-4.104,2.497-6.285,2.497C57.15,139.273,55.78,138.692,54.848,137.53z"/>
			<path fill="#FFFFFF" d="M67.611,136.13c0-0.229,0.028-0.659,0.086-1.291c0.287-2.037,1.046-4.09,2.282-6.156
				c1.233-2.067,2.683-3.767,4.348-5.102c1.663-1.335,3.229-2.002,4.691-2.002c0.89,0,1.68,0.252,2.368,0.754
				c0.689,0.5,1.077,1.241,1.163,2.217l-1.852-1.164c0.401-0.055,0.833-0.301,1.292-0.731c0.458-0.429,0.759-0.904,0.903-1.42
				c0.028-0.087,0.13-0.114,0.302-0.087c0.172,0.029,0.244,0.072,0.215,0.13l-2.497,13.647c-0.086,0.459-0.129,0.861-0.129,1.205
				c0,0.861,0.259,1.292,0.775,1.292c0.631,0,1.578-0.66,2.84-1.981c0.029-0.028,0.072-0.042,0.13-0.042
				c0.086,0,0.158,0.051,0.215,0.15c0.057,0.1,0.057,0.181,0,0.237c-0.977,1.118-1.845,1.959-2.604,2.52
				c-0.762,0.559-1.5,0.837-2.217,0.837c-0.489,0-0.854-0.15-1.098-0.451c-0.244-0.302-0.366-0.798-0.366-1.485
				c0-0.574,0.086-1.334,0.258-2.281l1.033-6.028l0.732-0.731c-1.292,3.302-2.885,5.983-4.779,8.052
				c-1.895,2.066-3.703,3.099-5.425,3.099C68.5,139.316,67.611,138.255,67.611,136.13z M75.124,135.614
				c1.162-1.061,2.203-2.403,3.121-4.025c0.917-1.621,1.535-3.208,1.851-4.756c0.086-0.346,0.13-0.69,0.13-1.033
				c0-0.832-0.23-1.493-0.69-1.98c-0.459-0.487-1.119-0.733-1.98-0.733c-1.005,0.028-2.031,0.481-3.078,1.355
				c-1.047,0.878-1.967,2.062-2.755,3.554c-0.789,1.491-1.328,3.127-1.614,4.907c-0.086,0.632-0.129,1.206-0.129,1.723
				c0,0.859,0.149,1.506,0.451,1.938c0.302,0.43,0.768,0.645,1.4,0.645C72.864,137.207,73.962,136.676,75.124,135.614z"/>
			<path fill="#FFFFFF" d="M88.211,139.036c-0.129-0.043-0.194-0.105-0.194-0.193c0-0.029,0.114-0.617,0.345-1.764l0.259-1.292
				l1.808-9.815c0.086-0.431,0.129-0.819,0.129-1.163c0-0.918-0.288-1.377-0.861-1.377c-0.344,0-0.782,0.173-1.313,0.516
				c-0.531,0.346-1.083,0.833-1.657,1.464c-0.029,0.028-0.072,0.044-0.129,0.044c-0.086,0-0.166-0.051-0.237-0.15
				c-0.071-0.102-0.064-0.179,0.022-0.237c0.976-1.12,1.873-1.953,2.69-2.497c0.818-0.545,1.6-0.819,2.347-0.819
				c0.488,0,0.846,0.15,1.076,0.453c0.229,0.301,0.344,0.782,0.344,1.442c0,0.746-0.072,1.492-0.215,2.239l-2.239,12.571
				c-0.144,0.431-0.602,0.645-1.376,0.645C88.605,139.101,88.34,139.079,88.211,139.036z M97.683,139.036
				c-0.13-0.043-0.194-0.105-0.194-0.193l0.215-0.989l0.43-2.282l1.421-7.491c0.114-0.774,0.172-1.506,0.172-2.194
				c0-1.751-0.532-2.627-1.594-2.627c-0.89,0-1.829,0.609-2.819,1.83c-0.99,1.22-1.923,2.978-2.799,5.274
				c-0.875,2.295-1.585,4.991-2.131,8.094l-0.559-0.045c0.574-3.328,1.356-6.263,2.346-8.804c0.99-2.538,2.124-4.511,3.401-5.919
				c1.276-1.404,2.604-2.109,3.982-2.109c0.86,0,1.5,0.252,1.916,0.754c0.415,0.5,0.624,1.299,0.624,2.388
				c0,0.689-0.086,1.536-0.258,2.542l-2.024,11.193c-0.028,0.201-0.157,0.356-0.387,0.474c-0.23,0.113-0.545,0.171-0.947,0.171
				S97.812,139.079,97.683,139.036z M107.907,138.692c-0.23-0.302-0.344-0.782-0.344-1.442c0-0.604,0.086-1.377,0.258-2.324
				l1.249-6.846c0.143-0.744,0.215-1.52,0.215-2.324c0-0.833-0.136-1.457-0.41-1.873c-0.273-0.417-0.696-0.624-1.27-0.624
				c-0.889,0-1.83,0.604-2.819,1.809c-0.991,1.205-1.931,2.956-2.82,5.252c-0.89,2.298-1.608,5.009-2.153,8.138l-0.473-0.045
				c0.544-3.328,1.32-6.269,2.324-8.824c1.005-2.554,2.139-4.527,3.401-5.921c1.263-1.39,2.583-2.087,3.961-2.087
				c0.861,0,1.507,0.252,1.937,0.754c0.431,0.5,0.647,1.313,0.647,2.433c0,0.66-0.087,1.491-0.259,2.497l-1.378,7.662
				c-0.086,0.429-0.129,0.805-0.129,1.119c0,0.459,0.071,0.803,0.215,1.034c0.144,0.229,0.344,0.344,0.603,0.344
				c0.631,0,1.578-0.66,2.841-1.981c0.058-0.057,0.115-0.087,0.172-0.087c0.086,0,0.158,0.053,0.215,0.152
				c0.057,0.102,0.044,0.193-0.042,0.28c-0.977,1.147-1.845,1.995-2.605,2.54c-0.762,0.545-1.5,0.816-2.217,0.816
				C108.509,139.143,108.137,138.993,107.907,138.692z"/>
			<path fill="#FFFFFF" d="M117.313,138.692c-0.244-0.302-0.366-0.811-0.366-1.527c0-0.603,0.086-1.35,0.258-2.239l4.262-22.817
				c0.057-0.229,0.086-0.545,0.086-0.947c0-0.717-0.287-1.076-0.86-1.076c-0.46,0-1.149,0.217-2.067,0.647h-0.086
				c-0.115,0-0.193-0.073-0.236-0.216c-0.043-0.143-0.008-0.231,0.108-0.26l5.553-2.711h0.086c0.115,0,0.215,0.043,0.302,0.129
				c0.085,0.085,0.114,0.158,0.085,0.215l-4.994,27.036c-0.085,0.429-0.128,0.818-0.128,1.162c0,0.431,0.071,0.76,0.214,0.991
				c0.143,0.229,0.344,0.344,0.603,0.344c0.631,0,1.579-0.66,2.842-1.981c0.056-0.057,0.114-0.087,0.171-0.087
				c0.087,0,0.158,0.053,0.215,0.152c0.058,0.102,0.043,0.193-0.042,0.28c-0.976,1.147-1.845,1.995-2.604,2.54
				c-0.761,0.545-1.5,0.816-2.218,0.816C117.952,139.143,117.557,138.993,117.313,138.692z"/>
			<path fill="#FFFFFF" d="M127.345,137.53c-0.934-1.162-1.4-2.663-1.4-4.498c0-0.632,0.071-1.378,0.215-2.239
				c0.258-1.463,0.861-2.907,1.808-4.328c0.947-1.42,2.131-2.587,3.551-3.509c1.421-0.916,2.906-1.376,4.457-1.376
				c1.032,0,1.814,0.209,2.347,0.624c0.53,0.418,0.724,0.983,0.58,1.701c-0.172,0.89-0.796,1.743-1.872,2.56
				c-1.076,0.819-2.44,1.508-4.09,2.068c-1.651,0.561-3.394,0.94-5.231,1.141l0.087-0.56c2.295-0.316,4.175-0.833,5.639-1.55
				c1.463-0.716,2.325-1.638,2.583-2.756c0.057-0.286,0.086-0.487,0.086-0.603c0-0.488-0.201-0.854-0.603-1.098
				c-0.402-0.244-0.876-0.366-1.42-0.366c-1.378,0-2.526,0.616-3.444,1.85c-0.918,1.235-1.536,2.828-1.851,4.779
				c-0.172,0.892-0.258,1.738-0.258,2.541c0,1.78,0.394,3.207,1.184,4.283c0.789,1.077,1.915,1.615,3.38,1.615
				c1.635,0,3.084-0.474,4.348-1.422h0.085c0.085,0,0.166,0.044,0.237,0.13c0.071,0.087,0.064,0.171-0.022,0.258
				c-2.009,1.664-4.104,2.497-6.285,2.497C129.647,139.273,128.276,138.692,127.345,137.53z"/>
			<path fill="#FFFFFF" d="M141.141,138.541c-0.775-0.458-1.162-1.033-1.162-1.72c0-0.461,0.135-0.819,0.409-1.077
				c0.273-0.26,0.581-0.39,0.925-0.39c0.259,0,0.467,0.087,0.625,0.26c0.158,0.173,0.351,0.461,0.581,0.861
				c0.345,0.575,0.695,1.02,1.055,1.335c0.359,0.316,0.897,0.474,1.615,0.474c1.578,0,2.496-0.877,2.755-2.627
				c0.027-0.143,0.042-0.329,0.042-0.559c0-0.833-0.23-1.551-0.689-2.154c-0.459-0.602-1.177-1.306-2.152-2.108
				c-0.948-0.774-1.658-1.455-2.131-2.045c-0.474-0.587-0.71-1.298-0.71-2.131c0-0.143,0.028-0.388,0.086-0.733
				c0.258-1.29,0.939-2.314,2.045-3.076c1.104-0.761,2.332-1.142,3.681-1.142c1.033,0,1.894,0.209,2.583,0.625
				c0.688,0.415,0.99,0.925,0.904,1.528c-0.086,0.372-0.251,0.66-0.495,0.859c-0.244,0.201-0.524,0.303-0.839,0.303
				c-0.316,0-0.582-0.087-0.796-0.258c-0.215-0.175-0.452-0.431-0.71-0.776c-0.317-0.457-0.625-0.796-0.926-1.012
				c-0.301-0.214-0.726-0.323-1.27-0.323c-0.689,0-1.242,0.195-1.658,0.581c-0.417,0.389-0.624,0.955-0.624,1.701
				c0,0.774,0.229,1.465,0.688,2.067c0.458,0.604,1.148,1.305,2.067,2.109c0.976,0.86,1.707,1.613,2.195,2.26
				c0.487,0.646,0.732,1.399,0.732,2.26c0,0.892-0.272,1.773-0.818,2.648c-0.546,0.876-1.285,1.586-2.217,2.13
				c-0.933,0.547-1.945,0.819-3.035,0.819C142.834,139.231,141.917,139,141.141,138.541z"/>
			<path fill="#FFFFFF" d="M153.884,138.541c-0.775-0.458-1.162-1.033-1.162-1.72c0-0.461,0.136-0.819,0.409-1.077
				c0.273-0.26,0.581-0.39,0.926-0.39c0.258,0,0.466,0.087,0.624,0.26c0.157,0.173,0.352,0.461,0.581,0.861
				c0.344,0.575,0.695,1.02,1.055,1.335c0.358,0.316,0.897,0.474,1.615,0.474c1.578,0,2.497-0.877,2.755-2.627
				c0.028-0.143,0.043-0.329,0.043-0.559c0-0.833-0.23-1.551-0.689-2.154c-0.46-0.602-1.177-1.306-2.153-2.108
				c-0.948-0.774-1.658-1.455-2.13-2.045c-0.474-0.587-0.71-1.298-0.71-2.131c0-0.143,0.028-0.388,0.086-0.733
				c0.258-1.29,0.939-2.314,2.045-3.076c1.104-0.761,2.332-1.142,3.681-1.142c1.033,0,1.895,0.209,2.583,0.625
				c0.688,0.415,0.989,0.925,0.904,1.528c-0.087,0.372-0.251,0.66-0.496,0.859c-0.244,0.201-0.524,0.303-0.839,0.303
				c-0.317,0-0.582-0.087-0.797-0.258c-0.215-0.175-0.452-0.431-0.71-0.776c-0.317-0.457-0.625-0.796-0.926-1.012
				c-0.301-0.214-0.725-0.323-1.269-0.323c-0.69,0-1.242,0.195-1.658,0.581c-0.417,0.389-0.624,0.955-0.624,1.701
				c0,0.774,0.229,1.465,0.688,2.067c0.459,0.604,1.148,1.305,2.067,2.109c0.976,0.86,1.707,1.613,2.195,2.26
				s0.732,1.399,0.732,2.26c0,0.892-0.273,1.773-0.818,2.648c-0.545,0.876-1.284,1.586-2.217,2.13
				c-0.933,0.547-1.944,0.819-3.036,0.819C155.578,139.231,154.659,139,153.884,138.541z"/>
			<path fill="#FFFFFF" d="M180.596,136.153c-1.794-2.109-2.69-4.759-2.69-7.943c0-0.89,0.101-1.938,0.301-3.143
				c0.488-2.67,1.535-5.044,3.143-7.126c1.606-2.08,3.537-3.694,5.79-4.842c2.253-1.148,4.556-1.723,6.909-1.723
				c1.207,0,2.382,0.138,3.531,0.41c1.147,0.271,2.051,0.638,2.712,1.097c0.172,0.145,0.28,0.272,0.323,0.389
				c0.043,0.113,0.05,0.329,0.022,0.644l-0.431,4.779c-0.029,0.115-0.115,0.173-0.258,0.173c-0.144,0-0.215-0.058-0.215-0.173
				c-0.201-2.181-0.94-3.788-2.217-4.821c-1.277-1.034-2.979-1.549-5.102-1.549c-1.836,0-3.529,0.472-5.08,1.419
				c-1.55,0.948-2.849,2.289-3.896,4.026c-1.047,1.735-1.758,3.766-2.131,6.092c-0.2,1.177-0.301,2.383-0.301,3.616
				c0,2.152,0.337,4.082,1.012,5.791c0.674,1.707,1.636,3.042,2.884,4.003s2.706,1.44,4.369,1.44c1.665,0,3.272-0.536,4.823-1.613
				c1.549-1.076,2.941-2.69,4.175-4.842c0.058-0.059,0.101-0.087,0.13-0.087c0.086,0,0.165,0.028,0.237,0.087
				c0.071,0.057,0.093,0.113,0.064,0.171l-1.291,4.606c-0.086,0.372-0.172,0.617-0.259,0.732c-0.085,0.114-0.258,0.216-0.516,0.301
				c-2.496,0.833-5.036,1.248-7.62,1.248C185.195,139.316,182.39,138.261,180.596,136.153z"/>
			<path fill="#FFFFFF" d="M203.241,137.552c-0.962-1.205-1.443-2.784-1.443-4.736c0-0.89,0.071-1.68,0.215-2.367
				c0.315-1.664,0.918-3.172,1.808-4.522c0.89-1.348,1.966-2.41,3.229-3.185c1.263-0.775,2.597-1.162,4.004-1.162
				c1.78,0,3.157,0.596,4.133,1.786c0.975,1.191,1.464,2.735,1.464,4.629c0,0.803-0.086,1.621-0.259,2.454
				c-0.343,1.75-0.989,3.308-1.937,4.67c-0.948,1.363-2.06,2.411-3.337,3.143s-2.576,1.1-3.896,1.1
				C205.529,139.361,204.202,138.757,203.241,137.552z M212.001,136.689c0.975-1.061,1.636-2.51,1.98-4.347
				c0.144-0.688,0.215-1.521,0.215-2.497c0-1.98-0.38-3.682-1.141-5.102c-0.761-1.421-1.845-2.132-3.25-2.132
				c-1.234,0-2.346,0.547-3.336,1.638c-0.991,1.09-1.673,2.54-2.045,4.349c-0.173,0.803-0.258,1.664-0.258,2.582
				c0,1.951,0.401,3.625,1.206,5.015c0.802,1.393,1.922,2.089,3.358,2.089C209.935,138.284,211.025,137.751,212.001,136.689z"/>
			<path fill="#FFFFFF" d="M220.461,139.036c-0.129-0.043-0.193-0.105-0.193-0.193c0-0.029,0.114-0.617,0.345-1.764l0.257-1.292
				l1.809-9.815c0.085-0.431,0.129-0.819,0.129-1.163c0-0.918-0.287-1.377-0.861-1.377c-0.344,0-0.782,0.173-1.313,0.516
				c-0.532,0.346-1.084,0.833-1.658,1.464c-0.028,0.028-0.072,0.044-0.129,0.044c-0.085,0-0.166-0.051-0.236-0.15
				c-0.073-0.102-0.066-0.179,0.021-0.237c0.976-1.12,1.873-1.953,2.691-2.497c0.818-0.545,1.6-0.819,2.346-0.819
				c0.487,0,0.846,0.15,1.077,0.453c0.229,0.301,0.344,0.782,0.344,1.442c0,0.746-0.073,1.492-0.215,2.239l-2.239,12.571
				c-0.144,0.431-0.603,0.645-1.378,0.645C220.856,139.101,220.591,139.079,220.461,139.036z M229.933,139.036
				c-0.129-0.043-0.193-0.105-0.193-0.193l0.214-0.989l0.431-2.282l1.42-7.491c0.115-0.774,0.173-1.506,0.173-2.194
				c0-1.751-0.531-2.627-1.593-2.627c-0.89,0-1.83,0.609-2.82,1.83c-0.99,1.22-1.923,2.978-2.799,5.274
				c-0.875,2.295-1.585,4.991-2.13,8.094l-0.56-0.045c0.574-3.328,1.356-6.263,2.347-8.804c0.99-2.538,2.124-4.511,3.4-5.919
				c1.277-1.404,2.605-2.109,3.982-2.109c0.861,0,1.5,0.252,1.916,0.754c0.416,0.5,0.625,1.299,0.625,2.388
				c0,0.689-0.086,1.536-0.259,2.542l-2.023,11.193c-0.029,0.201-0.158,0.356-0.388,0.474c-0.229,0.113-0.545,0.171-0.947,0.171
				C230.327,139.101,230.062,139.079,229.933,139.036z M240.157,138.692c-0.229-0.302-0.344-0.782-0.344-1.442
				c0-0.604,0.086-1.377,0.259-2.324l1.249-6.846c0.143-0.744,0.214-1.52,0.214-2.324c0-0.833-0.136-1.457-0.409-1.873
				c-0.272-0.417-0.696-0.624-1.27-0.624c-0.889,0-1.83,0.604-2.819,1.809c-0.99,1.205-1.931,2.956-2.82,5.252
				c-0.889,2.298-1.608,5.009-2.152,8.138l-0.474-0.045c0.545-3.328,1.32-6.269,2.325-8.824c1.004-2.554,2.138-4.527,3.401-5.921
				c1.263-1.39,2.583-2.087,3.961-2.087c0.861,0,1.506,0.252,1.937,0.754c0.43,0.5,0.646,1.313,0.646,2.433
				c0,0.66-0.086,1.491-0.258,2.497l-1.378,7.662c-0.085,0.429-0.13,0.805-0.13,1.119c0,0.459,0.072,0.803,0.216,1.034
				c0.143,0.229,0.344,0.344,0.603,0.344c0.631,0,1.578-0.66,2.841-1.981c0.058-0.057,0.114-0.087,0.172-0.087
				c0.086,0,0.158,0.053,0.215,0.152c0.058,0.102,0.043,0.193-0.043,0.28c-0.976,1.147-1.845,1.995-2.604,2.54
				c-0.761,0.545-1.5,0.816-2.217,0.816C240.76,139.143,240.386,138.993,240.157,138.692z"/>
			<path fill="#FFFFFF" d="M244.161,150.381c-0.029-0.174,0.014-0.274,0.129-0.301c0.631-0.117,1.105-0.268,1.42-0.453
				c0.316-0.188,0.553-0.489,0.71-0.904c0.159-0.418,0.324-1.084,0.495-2.001l4.392-24.582c0-0.059,0.199-0.268,0.603-0.625
				c0.402-0.359,0.76-0.739,1.077-1.141c0.315-0.401,0.516-0.861,0.604-1.379c0.027-0.114,0.12-0.158,0.278-0.128
				c0.159,0.028,0.222,0.102,0.194,0.215l-4.866,27.337c-0.084,0.489-0.127,0.876-0.127,1.162c0,0.547,0.127,0.935,0.387,1.164
				c0.259,0.227,0.674,0.344,1.249,0.344c0.144,0,0.474-0.028,0.99-0.087h0.042c0.087,0,0.144,0.071,0.173,0.215
				c0.028,0.145-0.014,0.229-0.128,0.262l-7.406,1.117C244.261,150.625,244.189,150.552,244.161,150.381z M250.941,138.712
				c-0.475-0.055-1.027-0.156-1.658-0.301l0.431-2.238c0.688,0.432,1.383,0.775,2.087,1.033c0.703,0.259,1.528,0.387,2.475,0.387
				c1.808,0,3.257-0.76,4.349-2.28c1.09-1.521,1.793-3.529,2.109-6.028c0.085-0.602,0.129-1.19,0.129-1.764
				c0-2.755-1.19-4.135-3.573-4.135c-1.234,0-2.497,0.346-3.789,1.034c-1.291,0.689-2.913,1.794-4.865,3.314l-0.085,0.044
				c-0.086,0-0.166-0.064-0.237-0.193c-0.072-0.13-0.064-0.209,0.021-0.238c4.075-3.673,7.664-5.509,10.764-5.509
				c1.377,0,2.424,0.38,3.142,1.14c0.717,0.76,1.076,1.873,1.076,3.336c0,0.461-0.043,0.978-0.129,1.551
				c-0.259,1.924-0.904,3.724-1.938,5.404c-1.033,1.679-2.281,3.02-3.746,4.023c-1.464,1.006-2.941,1.508-4.436,1.508
				C252.125,138.8,251.415,138.77,250.941,138.712z"/>
			<path fill="#FFFFFF" d="M267.192,136.13c0-0.776,0.101-1.605,0.301-2.497l1.55-7.662c0.088-0.488,0.13-0.874,0.13-1.163
				c0-0.89-0.273-1.334-0.819-1.334c-0.574,0-1.521,0.66-2.841,1.98c-0.059,0.057-0.115,0.086-0.172,0.086
				c-0.086,0-0.158-0.051-0.215-0.151c-0.059-0.1-0.042-0.194,0.042-0.279c1.004-1.148,1.888-1.996,2.648-2.54
				c0.76-0.545,1.5-0.819,2.218-0.819c1.004,0,1.506,0.661,1.506,1.981c0,0.431-0.101,1.178-0.301,2.239l-1.377,6.845
				c-0.203,0.89-0.303,1.692-0.303,2.412c0,1.605,0.618,2.409,1.852,2.409c0.946,0,1.931-0.603,2.949-1.808
				c1.019-1.205,1.98-2.957,2.884-5.254c0.904-2.295,1.628-5.007,2.175-8.135l0.559,0.043c-0.574,3.33-1.372,6.265-2.389,8.804
				c-1.021,2.54-2.181,4.514-3.487,5.919c-1.307,1.408-2.663,2.109-4.068,2.109C268.14,139.316,267.192,138.255,267.192,136.13z
				 M277.353,138.692c-0.229-0.302-0.345-0.782-0.345-1.442c0-0.746,0.072-1.491,0.215-2.237l2.196-12.571
				c0.085-0.431,0.545-0.646,1.378-0.646c0.688,0,1.033,0.085,1.033,0.256l-0.173,0.993c-0.172,0.688-0.33,1.449-0.473,2.28
				l-1.765,9.601c-0.086,0.429-0.129,0.818-0.129,1.162c0,0.92,0.272,1.378,0.817,1.378c0.747,0,1.751-0.66,3.013-1.981
				c0.029-0.026,0.071-0.043,0.129-0.043c0.087,0,0.158,0.051,0.216,0.151c0.056,0.101,0.056,0.18,0,0.237
				c-1.006,1.147-1.909,1.988-2.712,2.518c-0.803,0.53-1.58,0.796-2.326,0.796C277.939,139.143,277.581,138.993,277.353,138.692z"/>
			<path fill="#FFFFFF" d="M287.513,138.627c-0.547-0.43-0.819-1.12-0.819-2.065c0-0.174,0.028-0.487,0.086-0.948l1.851-10.029
				c0.114-0.546,0.172-1.006,0.172-1.379c0-0.401-0.114-0.667-0.345-0.797c-0.23-0.128-0.66-0.193-1.291-0.193
				c-0.086,0-0.129-0.071-0.129-0.215c0-0.058,0.021-0.122,0.065-0.193c0.042-0.071,0.079-0.107,0.108-0.107
				c0.976,0,1.822-0.317,2.54-0.949c0.717-0.63,1.205-1.42,1.463-2.367c0.057-0.085,0.186-0.128,0.388-0.128
				c0.287,0,0.402,0.043,0.345,0.128l-2.67,14.896c-0.085,0.461-0.128,0.891-0.128,1.292c0,1.406,0.703,2.109,2.109,2.109
				c0.746,0,1.442-0.173,2.087-0.516c0.647-0.344,1.329-0.817,2.046-1.421h0.043c0.086,0,0.179,0.043,0.279,0.129
				c0.101,0.087,0.108,0.158,0.022,0.215c-1.292,1.119-2.418,1.931-3.378,2.433c-0.962,0.5-1.889,0.753-2.778,0.753
				C288.746,139.273,288.058,139.058,287.513,138.627z M293.863,123.819c-1.134-0.145-2.219-0.215-3.252-0.215l0.086-1.034
				c0.918,0,2.482-0.071,4.693-0.216l1.462-0.085c0.202,0,0.302,0.101,0.302,0.301c0,0.229-0.157,0.53-0.473,0.904
				c-0.316,0.373-0.617,0.561-0.905,0.561C295.633,124.035,294.996,123.961,293.863,123.819z"/>
			<path fill="#FFFFFF" d="M300.6,138.692c-0.259-0.302-0.388-0.798-0.388-1.485c0-0.431,0.101-1.19,0.301-2.281l1.765-8.954
				c0.085-0.431,0.13-0.819,0.13-1.163c0-0.429-0.08-0.766-0.238-1.012c-0.158-0.242-0.366-0.365-0.624-0.365
				c-0.345,0-0.783,0.173-1.313,0.516c-0.533,0.346-1.084,0.833-1.658,1.464c-0.029,0.028-0.071,0.044-0.13,0.044
				c-0.085,0-0.165-0.051-0.237-0.15c-0.07-0.102-0.064-0.179,0.021-0.237c1.004-1.148,1.91-1.987,2.713-2.518
				c0.803-0.532,1.564-0.799,2.281-0.799c0.517,0,0.897,0.145,1.142,0.431c0.242,0.287,0.365,0.762,0.365,1.423
				c0,0.401-0.101,1.162-0.302,2.281l-1.721,9.04c-0.085,0.459-0.128,0.847-0.128,1.162c0,0.89,0.272,1.335,0.816,1.335
				c0.69,0,1.666-0.63,2.929-1.894c0.055-0.058,0.115-0.088,0.171-0.088c0.085,0,0.158,0.051,0.215,0.151s0.043,0.194-0.042,0.28
				c-0.976,1.119-1.852,1.945-2.626,2.475c-0.775,0.53-1.535,0.796-2.283,0.796C301.246,139.143,300.857,138.993,300.6,138.692z
				 M303.118,116.177c-0.329-0.331-0.494-0.782-0.494-1.355c0-0.546,0.165-0.976,0.494-1.294c0.33-0.313,0.782-0.472,1.355-0.472
				c0.575,0,1.02,0.158,1.334,0.472c0.315,0.318,0.475,0.748,0.475,1.294c0,0.573-0.159,1.024-0.475,1.355
				c-0.314,0.331-0.76,0.494-1.334,0.494C303.899,116.671,303.447,116.508,303.118,116.177z"/>
			<path fill="#FFFFFF" d="M310.436,139.036c-0.127-0.043-0.192-0.105-0.192-0.193l0.171-0.989c0.172-0.688,0.33-1.449,0.473-2.282
				l1.767-9.6c0.085-0.431,0.128-0.819,0.128-1.163c0-0.918-0.287-1.377-0.861-1.377c-0.343,0-0.782,0.173-1.313,0.516
				c-0.532,0.346-1.084,0.833-1.658,1.464c-0.029,0.028-0.071,0.044-0.129,0.044c-0.085,0-0.165-0.051-0.237-0.15
				c-0.07-0.102-0.063-0.179,0.024-0.237c0.975-1.12,1.873-1.953,2.689-2.497c0.818-0.545,1.599-0.819,2.346-0.819
				c0.489,0,0.847,0.15,1.079,0.453c0.229,0.301,0.343,0.782,0.343,1.442c0,0.746-0.071,1.492-0.215,2.239l-2.24,12.571
				c-0.028,0.201-0.166,0.356-0.409,0.474c-0.243,0.113-0.566,0.171-0.968,0.171C310.829,139.101,310.565,139.079,310.436,139.036z
				 M321.071,138.692c-0.246-0.302-0.366-0.798-0.366-1.485c0-0.574,0.083-1.334,0.258-2.281l1.249-6.846
				c0.172-0.918,0.258-1.692,0.258-2.324c0-1.664-0.619-2.497-1.854-2.497c-0.945,0-1.93,0.604-2.949,1.809
				c-1.02,1.205-1.971,2.956-2.863,5.252c-0.89,2.298-1.621,5.009-2.195,8.138l-0.516-0.045c0.574-3.328,1.371-6.263,2.39-8.804
				c1.018-2.538,2.18-4.511,3.488-5.919c1.305-1.404,2.662-2.109,4.067-2.109c0.946,0,1.65,0.259,2.11,0.774
				c0.458,0.517,0.687,1.32,0.687,2.412c0,0.516-0.102,1.349-0.301,2.497l-1.419,7.662c-0.087,0.429-0.13,0.805-0.13,1.119
				c0,0.919,0.285,1.378,0.862,1.378c0.631,0,1.577-0.66,2.841-1.981c0.056-0.057,0.101-0.087,0.13-0.087
				c0.084,0,0.165,0.053,0.235,0.152c0.072,0.102,0.066,0.193-0.021,0.28c-0.976,1.147-1.845,1.995-2.605,2.54
				s-1.5,0.816-2.215,0.816C321.693,139.143,321.314,138.993,321.071,138.692z"/>
			<path fill="#FFFFFF" d="M327.333,149.584c-1.176-0.849-1.763-1.873-1.763-3.078c0-0.948,0.302-1.807,0.903-2.584
				c0.604-0.774,1.355-1.471,2.26-2.087c0.903-0.619,2.173-1.387,3.81-2.304l0.302,0.344c-0.231,0.142-0.833,0.51-1.808,1.097
				c-0.976,0.589-1.721,1.248-2.238,1.981c-0.516,0.732-0.775,1.527-0.775,2.391c0,1.233,0.561,2.258,1.679,3.077
				c1.119,0.818,2.598,1.229,4.434,1.229c1.549,0,2.754-0.331,3.616-0.991c0.861-0.662,1.292-1.493,1.292-2.497
				c0-1.006-0.396-1.845-1.185-2.518c-0.789-0.675-1.973-1.416-3.552-2.217c-1.377-0.72-2.404-1.345-3.078-1.874
				c-0.673-0.533-1.011-1.184-1.011-1.96c0-0.688,0.238-1.327,0.709-1.914c0.474-0.588,1.242-1.327,2.305-2.219l0.429,0.346
				c-0.375,0.2-0.696,0.523-0.968,0.969c-0.275,0.444-0.408,0.882-0.408,1.313c0,0.66,0.315,1.243,0.947,1.745
				c0.631,0.502,1.606,1.081,2.925,1.741c1.092,0.575,1.96,1.063,2.605,1.465c0.647,0.402,1.206,0.904,1.68,1.506
				c0.474,0.604,0.71,1.292,0.71,2.066c0,1.064-0.417,2.074-1.249,3.037c-0.833,0.958-1.945,1.735-3.337,2.323
				c-1.391,0.589-2.892,0.884-4.499,0.884C330.09,150.855,328.51,150.43,327.333,149.584z M330.735,133.224
				c-0.774-0.874-1.162-2.001-1.162-3.379c0-0.457,0.071-1.018,0.215-1.68c0.343-1.807,1.206-3.308,2.583-4.499
				c1.378-1.19,2.914-1.786,4.607-1.786c1.377,0,2.439,0.425,3.186,1.271c0.745,0.847,1.121,1.959,1.121,3.336
				c0,0.632-0.059,1.191-0.173,1.679c-0.26,1.264-0.762,2.377-1.506,3.338c-0.749,0.961-1.618,1.707-2.605,2.239
				c-0.991,0.53-2.002,0.796-3.036,0.796C332.587,134.539,331.509,134.102,330.735,133.224z M337.387,132.536
				c0.702-0.788,1.169-1.857,1.399-3.206c0.087-0.517,0.13-1.049,0.13-1.595c0-1.376-0.259-2.568-0.774-3.572
				c-0.519-1.004-1.265-1.508-2.24-1.508c-0.862,0-1.658,0.425-2.391,1.271c-0.731,0.847-1.199,1.901-1.399,3.165
				c-0.085,0.545-0.127,1.105-0.127,1.679c0,1.377,0.264,2.548,0.795,3.509s1.285,1.442,2.26,1.442
				C335.902,133.72,336.683,133.326,337.387,132.536z M341.325,122.291c0.976-0.331,1.867-0.495,2.67-0.495
				c0.143,0,0.213,0.171,0.213,0.516c0,0.344-0.064,0.71-0.191,1.098c-0.13,0.388-0.251,0.553-0.366,0.496
				c-0.632-0.344-1.422-0.519-2.367-0.519c-0.921,0-1.825,0.16-2.713,0.476l-0.044-0.301
				C339.417,123.044,340.35,122.622,341.325,122.291z"/>
			<path fill="#FFFFFF" d="M367.156,138.475c-0.776-0.558-1.163-1.325-1.163-2.302c0-0.143,0.027-0.387,0.086-0.732l4.393-23.333
				c0.056-0.459,0.084-0.744,0.084-0.86c0-0.775-0.331-1.163-0.991-1.163c-0.456,0-1.146,0.217-2.063,0.647h-0.087
				c-0.114,0-0.188-0.073-0.214-0.216c-0.03-0.143,0.013-0.231,0.128-0.26l5.509-2.711h0.087c0.114,0,0.221,0.043,0.323,0.129
				c0.102,0.085,0.137,0.158,0.108,0.215l-4.909,26.735c-0.028,0.144-0.043,0.344-0.043,0.604c0,0.888,0.329,1.605,0.99,2.151
				c0.66,0.545,1.535,0.818,2.627,0.818c0.946,0,1.886-0.352,2.819-1.056c0.934-0.701,1.758-1.729,2.474-3.078
				c0.719-1.348,1.251-2.942,1.595-4.779c0.173-0.831,0.258-1.606,0.258-2.324c0-1.061-0.209-1.9-0.624-2.52
				c-0.416-0.614-1.068-0.925-1.96-0.925c-1.177,0-2.311,0.468-3.399,1.4c-1.091,0.934-2.054,2.238-2.886,3.917
				c-0.832,1.681-1.448,3.61-1.851,5.791l-0.258-0.861c0.345-2.153,1.034-4.168,2.066-6.049c1.032-1.88,2.268-3.371,3.702-4.479
				c1.436-1.104,2.899-1.656,4.391-1.656c1.091,0,1.954,0.409,2.584,1.228c0.631,0.817,0.947,1.914,0.947,3.294
				c0,0.658-0.059,1.275-0.171,1.849c-0.461,2.326-1.337,4.351-2.627,6.071c-1.291,1.723-2.743,3.035-4.35,3.939
				s-3.1,1.355-4.477,1.355C368.963,139.316,367.93,139.036,367.156,138.475z"/>
			<path fill="#FFFFFF" d="M380.566,150.508c-0.33-0.23-0.496-0.603-0.496-1.118c0-0.489,0.158-0.855,0.474-1.098
				c0.316-0.243,0.744-0.365,1.292-0.365c1.207,0,2.194-0.059,2.969-0.173c0.776-0.115,1.493-0.417,2.153-0.904
				c0.976-0.688,2.26-2.15,3.853-4.39c1.594-2.238,3.064-4.6,4.412-7.084c1.349-2.481,2.182-4.383,2.498-5.703
				c0.143-0.545,0.216-1.148,0.216-1.809c0-0.976-0.231-2.124-0.688-3.444c-0.23-0.543-0.347-0.976-0.347-1.29
				c0-0.402,0.146-0.74,0.431-1.014c0.287-0.272,0.66-0.408,1.12-0.408c1.091,0,1.637,0.79,1.637,2.367
				c0,2.354-1.114,5.705-3.338,10.053c-2.225,4.347-4.785,8.224-7.683,11.623c-2.899,3.401-5.312,5.104-7.233,5.104
				C381.318,150.855,380.896,150.739,380.566,150.508z M390.488,140.779c0-5.425-0.439-9.635-1.313-12.634
				c-0.875-2.999-2.075-4.499-3.595-4.499c-0.892,0-1.609,0.53-2.153,1.593c-0.029,0.086-0.114,0.13-0.259,0.13
				c-0.201,0-0.286-0.087-0.256-0.259c1.089-2.239,2.422-3.359,4.003-3.359c1.205,0,2.24,0.683,3.099,2.046
				c0.861,1.363,1.521,3.229,1.982,5.597c0.458,2.368,0.688,5.016,0.688,7.943c0,0.631-0.029,1.606-0.084,2.927l-2.155,3.358
				C390.474,142.961,390.488,142.014,390.488,140.779z"/>
		</g>
	</g>
</g>
</svg>
